@startuml

' CREAtED
CREATED: Pipeline execution created
CREATED: Just sent command to WP
CREATED: Pipeline execution is not running yet

' RUNNING
RUNNING: WP is running
RUNNING: Pipeline execution can wait events for run actions

' FINISHED
FINISHED: WP is finished successfully

' STOPPED
STOPPED: WP is stopped manually

' FAILED
FAILED: WP was failed

[*] --> CREATED

CREATED --> RUNNING

RUNNING -> FINISHED
RUNNING -> STOPPED
RUNNING -> FAILED

@enduml
